<?xml version="1.0" encoding="utf-8"?>
<!-- Generator: Adobe Illustrator 17.0.0, SVG Export Plug-In . SVG Version: 6.00 Build 0)  -->
<!DOCTYPE svg PUBLIC "-//W3C//DTD SVG 1.1//EN" "http://www.w3.org/Graphics/SVG/1.1/DTD/svg11.dtd">
<svg version="1.1" id="Layer_1" xmlns="http://www.w3.org/2000/svg" xmlns:xlink="http://www.w3.org/1999/xlink" x="0px" y="0px"
	 width="127.984px" height="127.984px" viewBox="0 0 127.984 127.984" enable-background="new 0 0 127.984 127.984"
	 xml:space="preserve">
<g>
	<g>
		<path fill="#D1CCBC" d="M22.132,48.024c-0.049-1.008-0.097-2.016-0.146-3.024c0.05-0.3,0.081-0.602,0.091-0.906l0.035-0.017
			c0.627-0.022,1.255-0.043,1.882-0.065c1.72,0.322,3.439,0.921,5.159,0.925c24.529,0.062,49.058,0.02,73.586,0.09
			c2.091,0.006,4.181,0.631,6.272,0.968c-0.951,2.533,2.199,6.197-2.148,7.795c0.021-0.573,0.042-1.147,0.062-1.72
			c-0.115-1.256-0.23-2.511-0.335-3.653c-3.708,0.207-6.984,0.591-10.254,0.538c-15.922-0.255-31.841-0.692-47.763-0.933
			C39.762,47.89,30.946,48.015,22.132,48.024z"/>
		<path fill="#D5D1C3" d="M28.114,42.001c3.992-2.871,7.91-5.853,11.993-8.588c6.457-4.325,12.998-8.525,19.555-12.698
			c4.121-2.622,8.198-2.011,12.1,0.587c8.397,5.593,16.777,11.212,25.164,16.82c-0.59,0.962-1.18,1.925-1.77,2.887
			c-1.711-0.68-3.421-1.36-5.132-2.04l-0.012,0.014c-0.346-0.333-0.691-0.665-1.037-0.998c-0.938-0.653-1.866-1.322-2.817-1.957
			c-5.022-3.353-10.05-6.697-15.077-10.045c-0.696-0.338-1.392-0.675-2.089-1.013c0,0,0.021,0.015,0.021,0.015
			c-2.348,0-4.697-0.001-7.045-0.001l0.021-0.014c-1.007,0.337-2.014,0.675-3.021,1.012c0,0,0.016-0.011,0.016-0.011
			c-0.338,0.337-0.677,0.674-1.015,1.011c0,0,0.01-0.013,0.01-0.013c-0.669,0.334-1.338,0.669-2.006,1.003l0.001,0.003
			c-0.369,0.335-0.738,0.67-1.108,1.004c-2.958,1.666-5.916,3.332-8.875,4.998c-1.35,1.004-2.7,2.008-4.05,3.012
			c-0.658,0.629-1.315,1.259-1.973,1.888c-1.644,1.03-3.288,2.06-4.932,3.089c-0.698,0.028-1.396,0.056-2.094,0.084
			c-0.633,0-1.265,0-1.898,0C30.07,42.035,29.092,42.018,28.114,42.001z"/>
		<path fill="#D5D1C3" d="M101.838,95.986c2.093,0.109,4.186,0.219,7.068,0.369c0,2.857,0,5.265,0,7.673
			c-2.664-0.285-5.328-0.57-7.992-0.855c-9.643-0.053-19.285-0.106-28.927-0.159c-0.941-2.013-1.882-4.026-2.814-6.021
			c-3.637,0-6.911,0-10.186,0c-1.674,0.012-3.348,0.024-5.021,0.036c-0.359-0.26-0.718-0.519-1.076-0.779
			c1.032-0.088,2.064-0.176,3.096-0.264c2.342-0.32,4.683-0.639,7.025-0.959c1.354-0.035,2.707-0.069,4.061-0.104
			c2.586,0.35,5.172,0.7,7.758,1.051c3.03-0.335,6.06-0.67,9.09-1.005c2.023-0.325,4.046-0.65,6.069-0.974
			c1.663,0.006,3.327,0.011,4.99,0.017C97.265,94.67,99.551,95.328,101.838,95.986z"/>
		<path fill="#C4C1B2" d="M22.132,48.024c8.814-0.009,17.63-0.135,26.441-0.001c15.922,0.241,31.841,0.678,47.763,0.933
			c3.269,0.052,6.546-0.331,10.254-0.538c0.105,1.142,0.22,2.397,0.335,3.653c-28.046-0.014-56.092-0.029-84.138-0.043
			C22.569,50.693,22.35,49.359,22.132,48.024z"/>
		<path fill="#E3E0D5" d="M95.156,41.009c0.59-0.962,1.18-1.925,1.77-2.887c3.421,1.667,6.842,3.334,10.262,5.001
			c0.446-0.376,0.892-0.753,1.339-1.129c0.161,1.333,0.323,2.667,0.484,4c-2.09-0.337-4.18-0.962-6.272-0.968
			c-24.529-0.07-49.058-0.027-73.586-0.09c-1.721-0.004-3.44-0.603-5.159-0.925c0.011-0.647,0.022-1.294,0.033-1.941
			c1.363-0.024,2.725-0.048,4.088-0.071c0.978,0.017,1.955,0.034,2.933,0.051c0.633,0,1.265,0,1.898,0
			c0.698-0.028,1.396-0.056,2.094-0.084c4.347-0.032,8.695-0.063,13.042-0.095c11.288,0.01,22.575,0.02,33.863,0.03
			c0.341,0.019,0.681,0.039,1.022,0.058c1.351-0.009,2.701-0.018,4.052-0.027C89.73,41.626,92.443,41.318,95.156,41.009z"/>
		<path fill="#D1CCBC" d="M29.053,94.981c-0.349-1.089-1-2.178-0.999-3.267c0.007-10.298,0.126-20.596,0.212-30.893
			c1.889,1.401,3.777,2.802,5.666,4.203c0.336,0.715,0.672,1.43,1.008,2.146c-0.317,9.274-0.634,18.549-0.951,27.823
			C32.343,94.988,30.698,94.984,29.053,94.981z"/>
		<path fill="#B7B3A6" d="M52.889,96.251c0.359,0.26,0.718,0.519,1.076,0.779c0.67,1.994,1.341,3.987,2.011,5.981
			c-5.319,0.005-10.638,0.009-15.957,0.014c-1.007,0.311-2.014,0.622-3.021,0.933c-4.662-0.311-9.324-0.621-13.986-0.932
			c-0.295-0.027-0.59-0.032-0.886-0.014c0-2.084,0-4.169,0-6.698c2.441-0.12,4.654-0.229,6.866-0.338c6,0.003,12,0.007,18,0.01
			C48.958,96.074,50.924,96.162,52.889,96.251z"/>
		<path fill="#A9A696" d="M22.787,52.027c28.046,0.014,56.092,0.029,84.138,0.043c-0.021,0.573-0.042,1.147-0.062,1.72l-0.437,0.094
			c-2.089,0.038-4.192,0.241-6.265,0.073c-2.569-0.207-4.401,0.503-5.23,3.086c-1.319-0.024-2.638-0.047-3.957-0.071
			c0.291-3.544-2.259-2.969-4.357-2.971c-11.473-0.014-22.946-0.041-34.419,0.033c-1.395,0.009-2.787,0.59-4.181,0.905
			c-0.272,0.102-0.551,0.126-0.836,0.072c-4.092-0.018-8.184-0.036-12.276-0.053c-0.621,0.007-1.243,0.014-1.864,0.02
			c-1.693,0.007-3.386,0.014-5.079,0.021c-1.108,0-2.217,0-3.445,0C23.886,53.914,23.336,52.97,22.787,52.027z"/>
		<path fill="#A9A696" d="M101.838,95.986c-2.287-0.658-4.573-1.316-6.86-1.975c0.335-1.915,0.931-3.827,0.958-5.746
			c0.105-7.415,0.029-14.832,0.021-22.249c0.029-0.352,0.059-0.704,0.088-1.056c1.896,0.002,3.792,0.004,5.688,0.005
			C101.767,75.306,101.802,85.646,101.838,95.986z"/>
		<path fill="#9F9A8E" d="M101.732,64.966c-1.896-0.002-3.792-0.004-5.688-0.005c-0.371-2.639-0.742-5.278-1.114-7.917
			c0.829-2.582,2.661-3.293,5.23-3.086c2.073,0.167,4.175-0.035,6.265-0.073c-1.356,0.598-2.712,1.196-4.269,1.883
			C102.02,58.739,101.876,61.853,101.732,64.966z"/>
		<path fill="#9F9A8E" d="M23.012,103.026c4.662,0.311,9.324,0.621,13.986,0.932c0.005,1.328,0.01,2.657,0.015,3.985
			c-3.749,0.03-7.498,0.061-11.248,0.091c-1.2-1.354-2.401-2.708-3.601-4.062C22.447,103.657,22.73,103.342,23.012,103.026z"/>
		<path fill="#9F9A8E" d="M33.041,54.978c0.621-0.007,1.243-0.014,1.864-0.02c0.006,0.374,0.012,0.747,0.019,1.121
			c0.022,0.641,0.043,1.281,0.065,1.922c-0.352,2.341-0.705,4.681-1.057,7.022c-1.889-1.401-3.777-2.802-5.666-4.203
			c-0.043-1.622-0.087-3.244-0.13-4.866C29.771,55.629,31.406,55.304,33.041,54.978z"/>
		<path fill="#B7B3A6" d="M100.914,103.173c2.664,0.285,5.328,0.57,7.992,0.855c-1.683,1.596-3.366,3.192-5.049,4.788
			c-0.959-0.273-1.918-0.545-2.877-0.818C100.957,106.39,100.936,104.781,100.914,103.173z"/>
		<path fill="#D5D1C3" d="M46.993,95.986c-6-0.003-12-0.007-18-0.01c-0.033-0.335-0.013-0.666,0.06-0.995
			c1.645,0.004,3.291,0.007,4.936,0.011c2.332,0.001,4.665,0.002,6.997,0.002c1.356-0.002,2.711-0.005,4.067-0.007
			C45.699,95.32,46.346,95.653,46.993,95.986z"/>
		<path fill="#857F73" d="M25.765,108.035c3.749-0.03,7.498-0.061,11.248-0.091c0.99,0.004,1.98,0.009,2.97,0.013
			c5.334,0.02,10.669,0.04,16.003,0.06c0.005,0.301,0.006,0.601,0.004,0.902c-9.21,0.022-18.421,0.07-27.631,0.025
			C27.493,108.939,26.629,108.352,25.765,108.035z"/>
		<path fill="#958D82" d="M100.979,107.998c0.959,0.273,1.918,0.545,2.877,0.818c-9.294,0-18.587,0-27.881,0
			c0-0.255-0.004-0.51-0.012-0.764C84.302,108.034,92.64,108.016,100.979,107.998z"/>
		<path fill="#8A837A" d="M75.963,108.051c0.008,0.255,0.012,0.509,0.012,0.764c-6.662,0.034-13.324,0.068-19.986,0.103
			c0.002-0.301,0.001-0.602-0.004-0.902c1.014-0.022,2.027-0.043,3.041-0.065c1.031-0.31,2.062-0.621,3.093-0.931
			c0.273,0.022,0.546,0.03,0.82,0.023C67.28,107.38,71.622,107.716,75.963,108.051z"/>
		<path fill="#857F73" d="M33.041,54.978c-1.635,0.325-3.27,0.651-4.906,0.976c-0.094-0.312-0.152-0.63-0.173-0.955
			C29.656,54.992,31.349,54.985,33.041,54.978z"/>
		<path fill="#EAE8E1" d="M24.027,42.072c-0.011,0.647-0.022,1.294-0.033,1.941c-0.627,0.022-1.255,0.043-1.882,0.065
			C22.75,43.409,23.388,42.741,24.027,42.072z"/>
		<path fill="#A9A696" d="M23.012,103.026c-0.283,0.315-0.565,0.631-0.848,0.946c-0.131-0.316-0.143-0.636-0.038-0.961
			C22.422,102.994,22.717,102.999,23.012,103.026z"/>
		<path fill="#EAE8E1" d="M22.077,44.094c-0.01,0.304-0.04,0.606-0.091,0.906C22.016,44.698,22.047,44.396,22.077,44.094z"/>
		<path fill="#C4C1B2" d="M87.018,41.934c-1.351,0.009-2.701,0.018-4.052,0.027c-0.319-0.325-0.638-0.65-0.956-0.975
			c-1.337-0.667-2.674-1.334-4.011-2.001c-3.983-2.334-7.967-4.667-11.95-7.001c-1.029-0.009-2.058-0.017-3.087-0.026
			c0,0,0.004,0.001,0.004,0.001c-0.335,0.334-0.67,0.668-1.005,1.002l0-0.008c-0.667,0.334-1.333,0.668-2,1.003l0.003,0.004
			c-0.334,0.334-0.669,0.668-1.003,1.002c0,0,0.002-0.009,0.002-0.009c-0.667,0.334-1.334,0.668-2.001,1.003l0.002,0.005
			c-0.334,0.334-0.669,0.668-1.003,1.002l0.002-0.01c-0.667,0.334-1.334,0.669-2.001,1.003l-0.032-0.02
			c-1.64,0.691-3.28,1.382-4.919,2.073c-1.789,0.21-3.603,0.695-5.359,0.538c-1.266-0.113-2.456-1.082-3.68-1.669
			c0.658-0.63,1.315-1.259,1.973-1.888c1.1-0.065,2.2-0.13,3.577-0.211c0.169-0.999,0.321-1.9,0.473-2.801
			c2.958-1.666,5.916-3.332,8.875-4.998c0.369-0.335,0.738-0.67,1.108-1.004l-0.001-0.003c0.669-0.334,1.338-0.669,2.006-1.003
			c0,0-0.01,0.013-0.01,0.013c0.338-0.337,0.677-0.674,1.015-1.011c0,0-0.016,0.011-0.016,0.011
			c1.007-0.337,2.014-0.675,3.021-1.012l-0.021,0.014c2.348,0,4.697,0.001,7.045,0.001l-0.021-0.015
			c0.696,0.338,1.392,0.675,2.089,1.013c5.026,3.347,10.054,6.692,15.077,10.045c0.951,0.635,1.879,1.304,2.817,1.957
			c0.346,0.333,0.691,0.665,1.037,0.998l0.012-0.014C89.022,39.957,88.02,40.946,87.018,41.934z"/>
		<path fill="#B7B3A6" d="M39.971,38.879c1.224,0.587,2.414,1.555,3.68,1.669c1.756,0.157,3.57-0.328,5.359-0.538
			c-0.31,0.621-0.619,1.243-0.929,1.864c-4.347,0.032-8.695,0.063-13.042,0.095C36.683,40.938,38.327,39.908,39.971,38.879z"/>
		<path fill="#B7B3A6" d="M87.018,41.934c1.002-0.988,2.004-1.977,3.006-2.965c1.711,0.68,3.421,1.36,5.132,2.04
			C92.443,41.318,89.73,41.626,87.018,41.934z"/>
		<path fill="#B7B3A6" d="M69.014,24.986c-2.348,0-4.697-0.001-7.045-0.001C64.318,24.985,66.666,24.985,69.014,24.986z"/>
		<path fill="#B7B3A6" d="M45.993,33.978c-0.152,0.901-0.304,1.802-0.473,2.801c-1.378,0.081-2.478,0.146-3.577,0.211
			C43.293,35.986,44.643,34.982,45.993,33.978z"/>
		<path fill="#B7B3A6" d="M61.99,24.97c-1.007,0.337-2.014,0.675-3.021,1.012C59.976,25.645,60.983,25.308,61.99,24.97z"/>
		<path fill="#B7B3A6" d="M71.082,25.983c-0.696-0.338-1.392-0.675-2.089-1.013C69.689,25.308,70.385,25.646,71.082,25.983z"/>
		<path fill="#B7B3A6" d="M57.98,26.969c-0.669,0.334-1.338,0.669-2.006,1.003C56.643,27.638,57.312,27.303,57.98,26.969z"/>
		<path fill="#EAE8E1" d="M32.945,42.052c-0.633,0-1.265,0-1.898,0C31.68,42.052,32.313,42.052,32.945,42.052z"/>
		<path fill="#B7B3A6" d="M55.975,27.976c-0.369,0.335-0.738,0.67-1.108,1.004C55.237,28.645,55.606,28.31,55.975,27.976z"/>
		<path fill="#B7B3A6" d="M58.986,25.972c-0.338,0.337-0.677,0.674-1.015,1.011C58.309,26.646,58.647,26.309,58.986,25.972z"/>
		<path fill="#B7B3A6" d="M90.012,38.983c-0.346-0.333-0.691-0.665-1.037-0.998C89.321,38.317,89.666,38.65,90.012,38.983z"/>
		<path fill="#D1CCBC" d="M83.919,94.969c-0.307-3.24-0.823-6.477-0.877-9.722c-0.113-6.758,0.02-13.52,0.051-20.28
			c2.29-0.318,4.579-0.636,6.869-0.955c0.003,1.326,0.006,2.653,0.009,3.979c0.006,8.668,0.012,17.335,0.017,26.003
			C87.965,94.32,85.942,94.644,83.919,94.969z"/>
		<path fill="#A9A696" d="M75.963,108.051c-4.341-0.336-8.683-0.672-13.024-1.008c0.016-1.292,0.033-2.583,0.049-3.875l0-0.209
			c3,0.018,5.999,0.036,8.999,0.054c9.643,0.053,19.285,0.106,28.927,0.159c0.022,1.608,0.043,3.216,0.065,4.825
			C92.64,108.016,84.302,108.034,75.963,108.051z"/>
		<path fill="#C4C1B2" d="M89.988,93.995c-0.006-8.668-0.012-17.335-0.017-26.003c1.995-0.658,3.991-1.317,5.986-1.975
			c0.009,7.416,0.085,14.834-0.021,22.249c-0.027,1.92-0.623,3.831-0.958,5.746C93.315,94.006,91.651,94,89.988,93.995z"/>
		<path fill="#B7B3A6" d="M56.153,79.954c0.013-1.993,0.027-3.987,0.04-5.98c1.932-0.326,3.863-0.653,5.795-0.979
			c0,2.212,0,4.424,0,7.235c2.613-0.546,4.318-0.902,6.022-1.258c0.015,2.994,0.03,5.987,0.045,8.981
			c-0.037,1.985-0.074,3.969-0.111,5.954c-0.291,0.339-0.583,0.678-0.874,1.017c-1.354,0.035-2.707,0.069-4.061,0.104
			c-0.362-0.365-0.723-0.731-1.085-1.096c0.011-0.637,0.022-1.275,0.033-1.912c-0.268-3.949-0.537-7.897-0.804-11.83
			C58.755,80.077,57.454,80.016,56.153,79.954z"/>
		<path fill="#D1CCBC" d="M71.987,103.014c-3-0.018-5.999-0.036-8.999-0.054c-1.334-1.989-2.667-3.978-4.001-5.967
			c3.275,0,6.549,0,10.186,0C70.105,98.988,71.046,101.001,71.987,103.014z"/>
		<path fill="#C4C1B2" d="M58.987,96.993c1.334,1.989,2.667,3.978,4.001,5.967l0,0.209c-2.337-0.053-4.674-0.105-7.012-0.158
			c-0.67-1.994-1.341-3.987-2.011-5.981C55.639,97.018,57.313,97.005,58.987,96.993z"/>
		<path fill="#958D82" d="M67.071,94.924c0.291-0.339,0.583-0.678,0.874-1.017c2.324,0.033,4.648,0.067,6.972,0.1
			c-0.029,0.656-0.059,1.312-0.088,1.968C72.243,95.624,69.657,95.274,67.071,94.924z"/>
		<path fill="#C4C1B2" d="M61.925,93.932c0.362,0.365,0.723,0.731,1.085,1.096c-2.342,0.32-4.683,0.639-7.025,0.959
			c0.04-0.652,0.08-1.305,0.121-1.957C58.046,93.997,59.986,93.964,61.925,93.932z"/>
		<path fill="#9F9A8E" d="M48.081,41.873c0.31-0.621,0.619-1.243,0.929-1.864c1.64-0.691,3.28-1.382,4.919-2.073
			c0.445,0.644,0.904,1.858,1.334,1.848c7.58-0.177,15.157-0.504,22.735-0.799c1.337,0.667,2.674,1.334,4.011,2.001
			c-0.002,0.307-0.024,0.613-0.065,0.917C70.657,41.894,59.369,41.883,48.081,41.873z"/>
		<path fill="#B7B3A6" d="M81.944,41.904c0.042-0.304,0.064-0.61,0.065-0.917c0.319,0.325,0.638,0.65,0.956,0.975
			C82.626,41.942,82.285,41.923,81.944,41.904z"/>
		<path fill="#C4C1B2" d="M40.986,94.994c-2.332-0.001-4.665-0.002-6.997-0.002c0.317-9.274,0.634-18.549,0.951-27.823
			c1.996,1.643,3.991,3.285,5.987,4.928c0.027,0.289,0.06,0.578,0.101,0.866C41.014,80.306,41,87.65,40.986,94.994z"/>
		<path fill="#958D82" d="M40.927,72.096c-1.996-1.643-3.991-3.285-5.987-4.928c-0.336-0.715-0.672-1.43-1.008-2.146
			c0.352-2.341,0.705-4.681,1.057-7.022c2.004-0.004,4.008-0.009,6.012-0.013c0.021,0.315,0.036,0.63,0.046,0.945
			C41.007,63.321,40.967,67.709,40.927,72.096z"/>
		<path fill="#9F9A8E" d="M55.976,103.011c2.337,0.053,4.674,0.105,7.012,0.158c-0.016,1.292-0.033,2.583-0.049,3.875
			c-0.274,0.007-0.547-0.001-0.82-0.023c-1.031,0.31-2.062,0.621-3.093,0.931c-1.014,0.022-2.027,0.043-3.041,0.065
			c-5.334-0.02-10.669-0.04-16.003-0.06c0.012-1.644,0.024-3.288,0.037-4.932C45.338,103.02,50.657,103.015,55.976,103.011z"/>
		<path fill="#A9A696" d="M40.019,103.025c-0.012,1.644-0.024,3.288-0.037,4.932c-0.99-0.004-1.98-0.009-2.97-0.013
			c-0.005-1.328-0.01-2.657-0.015-3.985C38.005,103.647,39.012,103.336,40.019,103.025z"/>
		<path fill="#9F9A8E" d="M68.055,87.953c-0.015-2.994-0.03-5.987-0.045-8.981c0-4.537,0-9.074,0-14.057
			c-2.642,1.348-4.323,2.205-6.003,3.062c-0.111-1.551-0.222-3.102-0.353-4.942c-2.109,0-3.712,0-5.315,0
			c-0.141-2.461-0.282-4.921-0.465-8.096c-2.694,0-5.275,0-7.856,0c1.394-0.316,2.785-0.897,4.181-0.905
			c11.473-0.073,22.946-0.047,34.419-0.033c2.098,0.003,4.648-0.572,4.357,2.971c-0.675,0.036-1.349,0.073-2.024,0.109
			c-1.314-0.004-2.628-0.008-3.942-0.012c-0.329,0.312-0.658,0.623-0.987,0.935c-0.289,0.947-0.578,1.894-0.867,2.842
			c-0.129-1.755-0.258-3.511-0.451-6.139c-2.778,0.469-5.314,0.897-7.851,1.325c-3.027,0.133-6.054,0.265-10.295,0.451
			c1.967,1.395,2.723,1.932,3.479,2.468c0.452,1.283,0.905,2.566,1.426,4.042c1.71,0,3.11,0,4.51,0
			c0.292,3.639,0.585,7.279,0.877,10.918c0.001,1.382,0.003,2.765,0.004,4.147c-0.292,3.315-0.585,6.63-0.877,9.944
			C72.002,87.985,70.029,87.969,68.055,87.953z"/>
		<path fill="#B7B3A6" d="M88.951,57.081c0.675-0.036,1.349-0.073,2.024-0.109c1.319,0.024,2.638,0.047,3.957,0.071
			c0.371,2.639,0.742,5.278,1.114,7.917c-0.029,0.352-0.059,0.704-0.088,1.056c-1.995,0.658-3.991,1.317-5.986,1.975
			c-0.003-1.326-0.006-2.653-0.009-3.979C89.625,61.702,89.288,59.392,88.951,57.081z"/>
		<path fill="#6C675B" d="M41.047,58.933c-0.01-0.315-0.026-0.63-0.046-0.945c-1.069-3.68-4.037-1.318-6.077-1.909
			c-0.006-0.374-0.012-0.747-0.019-1.121c4.092,0.018,8.184,0.036,12.276,0.053c-0.141,1.311-0.283,2.623-0.424,3.934
			C44.854,58.941,42.951,58.937,41.047,58.933z"/>
		<path fill="#857F73" d="M34.924,56.079c2.04,0.592,5.008-1.77,6.077,1.909c-2.004,0.004-4.008,0.008-6.012,0.013
			C34.967,57.36,34.946,56.719,34.924,56.079z"/>
		<path fill="#A9A696" d="M40.986,94.994C41,87.65,41.014,80.306,41.028,72.962c1.933,1.645,3.866,3.289,5.799,4.934
			c0.045,4.313,0.247,8.633,0.045,12.934c-0.066,1.411-1.183,2.772-1.819,4.156C43.697,94.99,42.341,94.992,40.986,94.994z"/>
		<path fill="#A9A696" d="M59.026,107.952c1.031-0.31,2.062-0.621,3.093-0.931C61.088,107.331,60.057,107.641,59.026,107.952z"/>
		<path fill="#A9A696" d="M77.999,38.986c-7.578,0.294-15.155,0.621-22.735,0.799c-0.43,0.01-0.889-1.204-1.334-1.848l0.032,0.02
			c0.667-0.334,1.334-0.669,2.001-1.003l-0.002,0.01c0.334-0.334,0.669-0.668,1.003-1.002l-0.002-0.005
			c0.667-0.334,1.334-0.668,2.001-1.003c0,0-0.002,0.009-0.002,0.009c0.334-0.334,0.669-0.668,1.003-1.002l-0.003-0.004
			c0.667-0.334,1.333-0.668,2-1.003c0,0,0,0.008,0,0.008c0.335-0.334,0.67-0.668,1.005-1.002c0,0-0.004-0.001-0.004-0.001
			c1.029,0.009,2.058,0.017,3.087,0.026C70.032,34.318,74.015,36.652,77.999,38.986z"/>
		<path fill="#9F9A8E" d="M66.049,31.985c-1.029-0.009-2.058-0.017-3.087-0.026C63.99,31.968,65.02,31.976,66.049,31.985z"/>
		<path fill="#9F9A8E" d="M61.961,32.954c-0.667,0.334-1.333,0.668-2,1.003C60.628,33.622,61.295,33.288,61.961,32.954z"/>
		<path fill="#9F9A8E" d="M58.962,34.953c-0.667,0.334-1.334,0.668-2.001,1.003C57.629,35.622,58.296,35.288,58.962,34.953z"/>
		<path fill="#9F9A8E" d="M55.963,36.953c-0.667,0.334-1.334,0.669-2.001,1.003C54.629,37.622,55.296,37.287,55.963,36.953z"/>
		<path fill="#9F9A8E" d="M62.966,31.96c-0.335,0.334-0.67,0.668-1.005,1.002C62.296,32.628,62.631,32.294,62.966,31.96z"/>
		<path fill="#9F9A8E" d="M59.964,33.961c-0.334,0.334-0.669,0.668-1.003,1.002C59.295,34.629,59.63,34.295,59.964,33.961z"/>
		<path fill="#9F9A8E" d="M56.964,35.961c-0.334,0.334-0.669,0.668-1.003,1.002C56.295,36.629,56.63,36.295,56.964,35.961z"/>
		<path fill="#857F73" d="M46.827,77.896c-1.933-1.645-3.866-3.289-5.799-4.934c-0.04-0.288-0.074-0.576-0.101-0.866
			c0.04-4.388,0.08-8.776,0.12-13.163c1.904,0.004,3.807,0.008,5.711,0.012C46.781,65.262,46.804,71.579,46.827,77.896z"/>
		<path fill="#B4AC9D" d="M56.339,63.035c1.603,0,3.206,0,5.315,0c0.131,1.84,0.242,3.391,0.353,4.942
			c-0.006,1.673-0.013,3.345-0.019,5.018c-1.932,0.326-3.863,0.653-5.795,0.979C56.241,70.328,56.29,66.681,56.339,63.035z"/>
		<path fill="#C4C1B2" d="M56.153,79.954c1.301,0.061,2.602,0.122,5.002,0.235c0.267,3.932,0.536,7.881,0.804,11.83
			c-1.924-1.03-3.847-2.059-5.771-3.089C56.176,85.938,56.165,82.946,56.153,79.954z"/>
		<path fill="#D5D1C3" d="M56.188,88.93c1.924,1.03,3.847,2.059,5.771,3.089c-0.011,0.637-0.022,1.275-0.033,1.912
			c-1.94,0.033-3.88,0.065-5.819,0.098C56.133,92.33,56.161,90.63,56.188,88.93z"/>
		<path fill="#C4C1B2" d="M88.951,57.081c0.337,2.31,0.674,4.621,1.011,6.931c-2.29,0.318-4.579,0.636-6.869,0.955
			c0.021-1.374,0.042-2.748,0.062-4.122c0.289-0.947,0.578-1.894,0.867-2.842c0.329-0.312,0.658-0.623,0.987-0.935
			C86.323,57.073,87.637,57.077,88.951,57.081z"/>
		<path fill="#A9A696" d="M68.055,87.953c1.973,0.016,3.947,0.033,5.92,0.049c0.293,1.304,0.586,2.608,0.879,3.912
			c0.021,0.698,0.041,1.396,0.062,2.093c-2.324-0.033-4.648-0.067-6.972-0.1C67.981,91.922,68.018,89.937,68.055,87.953z"/>
		<path fill="#958D82" d="M73.971,62.992c-1.4,0-2.8,0-4.51,0c-0.521-1.476-0.973-2.759-1.426-4.042
			c2.274,0.008,4.547,0.016,6.821,0.024c-0.01,1.346-0.019,2.693-0.029,4.039C74.542,63.002,74.257,62.995,73.971,62.992z"/>
		<path fill="#857F73" d="M74.857,58.974c-2.274-0.008-4.547-0.016-6.821-0.024c-0.756-0.537-1.513-1.073-3.479-2.468
			c4.241-0.186,7.268-0.318,10.295-0.451C74.854,57.012,74.855,57.993,74.857,58.974z"/>
		<path fill="#958D82" d="M74.855,91.913c-0.293-1.304-0.586-2.608-0.879-3.912c0.292-3.315,0.585-6.63,0.877-9.944
			C74.853,82.676,74.854,87.294,74.855,91.913z"/>
		<path fill="#857F73" d="M73.971,62.992c0.286,0.003,0.571,0.01,0.856,0.021c0.007,3.632,0.014,7.265,0.021,10.897
			C74.556,70.271,74.264,66.631,73.971,62.992z"/>
		<path fill="#A9A696" d="M61.988,72.995c0.006-1.673,0.013-3.345,0.019-5.018c1.68-0.857,3.361-1.714,6.003-3.062
			c0,4.983,0,9.52,0,14.057c-1.705,0.356-3.409,0.712-6.022,1.258C61.988,77.419,61.988,75.207,61.988,72.995z"/>
		<path fill="#B7B3A6" d="M85.009,57.069c-0.329,0.312-0.658,0.623-0.987,0.935C84.351,57.692,84.68,57.381,85.009,57.069z"/>
	</g>
</g>
</svg>
